<?xml version="1.0" encoding="UTF-8"?>
<svg xmlns="http://www.w3.org/2000/svg" version="1.1" viewBox="0 0 150.8 186">
  <defs>
    <style>
      .cls-1 {
        fill: #fff;
      }

      .cls-2 {
        fill: #d5000d;
      }
    </style>
  </defs>
  <!-- Generator: Adobe Illustrator 28.7.1, SVG Export Plug-In . SVG Version: 1.2.0 Build 142)  -->
  <g>
    <g id="Layer_1">
      <path id="Path_3215" class="cls-2" d="M5.8,138.2c1.2,1.4,2.1,3,2.7,4.7.6,1.6,2,4.7.2,4.9s-3.4-3.7-3.5-4.4c-.5,1.3-1.1,2.5-1.8,3.7-.7,1-1.7,1.3-2.4,0-.3-.6.8-4.4,1.7-6.1.8-1.8,2.1-3.7,3.1-2.8"/>
      <path id="Path_3216" class="cls-2" d="M15,129.4c1.2,1.4,2.1,3,2.7,4.7.6,1.6,2,4.7.2,4.9s-3.4-3.7-3.5-4.4c-.5,1.3-1.1,2.5-1.8,3.7-.7,1-1.7,1.3-2.4,0-.3-.6.8-4.4,1.7-6.1s2.1-3.7,3.1-2.8"/>
      <path id="Path_3217" class="cls-2" d="M5.8,120.5c1.2,1.4,2.1,3,2.7,4.7.6,1.6,2,4.7.2,4.9s-3.4-3.7-3.5-4.4c-.5,1.3-1.1,2.5-1.8,3.7-.7,1-1.7,1.3-2.4,0-.3-.6.8-4.4,1.7-6.1.8-1.8,2.1-3.7,3.1-2.8"/>
      <path id="Path_3218" class="cls-2" d="M5.8,82.9c1.2,1.4,2.1,3,2.7,4.7.6,1.6,2,4.7.2,4.9s-3.4-3.7-3.5-4.4c-.5,1.3-1.1,2.5-1.8,3.7-.7,1-1.7,1.3-2.4,0-.3-.6.8-4.4,1.7-6.1.8-1.8,2.1-3.7,3.1-2.8"/>
      <path id="Path_3219" class="cls-2" d="M15,74.1c1.2,1.4,2.1,3,2.7,4.7.6,1.6,2,4.7.2,4.9s-3.4-3.7-3.5-4.4c-.5,1.3-1.1,2.5-1.8,3.7-.7,1-1.7,1.3-2.4,0-.3-.6.8-4.4,1.7-6.1s2.1-3.7,3.1-2.8"/>
      <path id="Path_3220" class="cls-2" d="M5.8,65.2c1.2,1.4,2.1,3,2.7,4.7.6,1.6,2,4.7.2,4.9s-3.4-3.7-3.5-4.4c-.5,1.3-1.1,2.5-1.8,3.7-.7,1-1.7,1.3-2.4,0-.3-.6.8-4.4,1.7-6.1.8-1.8,2.1-3.7,3.1-2.8"/>
      <path id="Path_3221" class="cls-2" d="M24.9,101.5c1.2,1.4,2.1,3,2.7,4.7.6,1.6,2,4.7.2,4.9s-3.4-3.7-3.5-4.4c-.5,1.3-1.1,2.5-1.8,3.7-.7,1-1.7,1.3-2.4,0-.3-.6.8-4.4,1.7-6.1.8-1.8,2.1-3.7,3.1-2.8"/>
      <path id="Path_3222" class="cls-2" d="M34.1,110.4c1.2,1.4,2.1,3,2.7,4.7.6,1.6,2,4.7.2,4.9s-3.4-3.7-3.5-4.4c-.5,1.3-1.1,2.5-1.8,3.7-.7,1-1.7,1.3-2.4,0-.3-.6.8-4.4,1.7-6.1s2.1-3.7,3.1-2.8"/>
      <path id="Path_3223" class="cls-2" d="M43.3,101.5c1.2,1.4,2.1,3,2.7,4.7.6,1.6,2,4.7.2,4.9s-3.4-3.7-3.5-4.4c-.5,1.3-1.1,2.5-1.8,3.7-.7,1-1.7,1.3-2.4,0-.3-.6.8-4.4,1.7-6.1s2.1-3.7,3.1-2.8"/>
      <path id="Path_3224" class="cls-2" d="M34.1,92.7c1.2,1.4,2.1,3,2.7,4.7.6,1.6,2,4.7.2,4.9s-3.4-3.7-3.5-4.4c-.5,1.3-1.1,2.5-1.8,3.7-.7,1-1.7,1.3-2.4,0-.3-.6.8-4.4,1.7-6.1s2.1-3.7,3.1-2.8"/>
      <path id="Path_3225" class="cls-2" d="M34,156.7c1.2,1.4,2.2,3.1,2.8,4.8.6,1.6,2,4.8.2,5.1s-3.5-3.9-3.6-4.5c-.5,1.3-1.1,2.6-1.8,3.9-.7,1.1-1.8,1.3-2.4,0-.3-.6.9-4.5,1.7-6.4s2.1-3.9,3.2-2.9"/>
      <path id="Path_3226" class="cls-2" d="M43.4,147.6c1.2,1.4,2.2,3.1,2.8,4.8.6,1.6,2,4.8.2,5.1s-3.5-3.9-3.6-4.5c-.5,1.3-1.1,2.6-1.8,3.9-.7,1.1-1.8,1.3-2.4,0-.3-.6.9-4.5,1.7-6.4s2.1-3.9,3.2-2.9"/>
      <path id="Path_3227" class="cls-2" d="M52.8,138.4c1.2,1.4,2.2,3.1,2.8,4.8.6,1.6,2,4.8.2,5.1s-3.5-3.9-3.6-4.5c-.5,1.3-1.1,2.6-1.8,3.9-.7,1.1-1.8,1.3-2.4,0-.3-.6.9-4.5,1.7-6.4s2.1-3.9,3.2-2.9"/>
      <path id="Path_3228" class="cls-1" d="M62.2,156.7c1.2,1.4,2.2,3.1,2.8,4.8.6,1.6,2,4.8.2,5.1s-3.5-3.9-3.6-4.5c-.5,1.3-1.1,2.6-1.8,3.9-.7,1.1-1.8,1.3-2.4,0-.3-.6.9-4.5,1.7-6.4s2.1-3.9,3.2-2.9"/>
      <path id="Path_3229" class="cls-2" d="M62.2,129.2c1.2,1.4,2.2,3.1,2.8,4.8.6,1.6,2,4.8.2,5.1s-3.5-3.9-3.6-4.5c-.5,1.3-1.1,2.6-1.8,3.9-.7,1.1-1.8,1.3-2.4,0-.3-.6.9-4.5,1.7-6.4s2.1-3.9,3.2-2.9"/>
      <path id="Path_3230" class="cls-1" d="M71.6,156.7c1.2,1.4,2.2,3.1,2.8,4.8.6,1.6,2,4.8.2,5.1s-3.5-3.9-3.6-4.5c-.5,1.3-1.1,2.6-1.8,3.9-.7,1.1-1.8,1.3-2.4,0-.3-.6.9-4.5,1.7-6.4s2.1-3.9,3.2-2.9"/>
      <path id="Path_3231" class="cls-1" d="M71.6,147.6c1.2,1.4,2.2,3.1,2.8,4.8.6,1.6,2,4.8.2,5.1s-3.5-3.9-3.6-4.5c-.5,1.3-1.1,2.6-1.8,3.9-.7,1.1-1.8,1.3-2.4,0-.3-.6.9-4.5,1.7-6.4s2.1-3.9,3.2-2.9"/>
      <path id="Path_3232" class="cls-2" d="M71.6,120.1c1.2,1.4,2.2,3.1,2.8,4.8.6,1.6,2,4.8.2,5.1s-3.5-3.9-3.6-4.5c-.5,1.3-1.1,2.6-1.8,3.9-.7,1.1-1.8,1.3-2.4,0-.3-.6.9-4.5,1.7-6.4s2.1-3.9,3.2-2.9"/>
      <path id="Path_3233" class="cls-1" d="M81,147.6c1.2,1.4,2.2,3.1,2.8,4.8.6,1.6,2,4.8.2,5.1s-3.5-3.9-3.6-4.5c-.5,1.3-1.1,2.6-1.8,3.9-.7,1.1-1.8,1.3-2.4,0-.3-.6.9-4.5,1.7-6.4s2.1-3.9,3.2-2.9"/>
      <path id="Path_3234" class="cls-1" d="M81,138.4c1.2,1.4,2.2,3.1,2.8,4.8.6,1.6,2,4.8.2,5.1s-3.5-3.9-3.6-4.5c-.5,1.3-1.1,2.6-1.8,3.9-.7,1.1-1.8,1.3-2.4,0-.3-.6.9-4.5,1.7-6.4s2.1-3.9,3.2-2.9"/>
      <path id="Path_3235" class="cls-2" d="M81,110.9c1.2,1.4,2.2,3.1,2.8,4.8.6,1.6,2,4.8.2,5.1s-3.5-3.9-3.6-4.5c-.5,1.3-1.1,2.6-1.8,3.9-.7,1.1-1.8,1.3-2.4,0-.3-.6.9-4.5,1.7-6.4s2.1-3.9,3.2-2.9"/>
      <path id="Path_3236" class="cls-1" d="M90.4,156.7c1.2,1.4,2.2,3.1,2.8,4.8.6,1.6,2,4.8.2,5.1s-3.5-3.9-3.6-4.5c-.5,1.3-1.1,2.6-1.8,3.9-.7,1.1-1.8,1.3-2.4,0-.3-.6.9-4.5,1.7-6.4s2.1-3.9,3.2-2.9"/>
      <path id="Path_3237" class="cls-1" d="M90.4,147.6c1.2,1.4,2.2,3.1,2.8,4.8.6,1.6,2,4.8.2,5.1s-3.5-3.9-3.6-4.5c-.5,1.3-1.1,2.6-1.8,3.9-.7,1.1-1.8,1.3-2.4,0-.3-.6.9-4.5,1.7-6.4s2.1-3.9,3.2-2.9"/>
      <path id="Path_3238" class="cls-2" d="M90.4,120.1c1.2,1.4,2.2,3.1,2.8,4.8.6,1.6,2,4.8.2,5.1s-3.5-3.9-3.6-4.5c-.5,1.3-1.1,2.6-1.8,3.9-.7,1.1-1.8,1.3-2.4,0-.3-.6.9-4.5,1.7-6.4s2.1-3.9,3.2-2.9"/>
      <path id="Path_3239" class="cls-1" d="M5.9,101.7c1.2,1.4,2.2,3.1,2.8,4.8.6,1.6,2,4.8.2,5.1s-3.5-3.9-3.6-4.5c-.5,1.3-1.1,2.6-1.8,3.9-.7,1.1-1.8,1.3-2.5,0-.3-.6.9-4.5,1.7-6.4.8-1.9,2.1-3.9,3.2-2.9"/>
      <path id="Path_3240" class="cls-1" d="M15.3,110.9c1.2,1.4,2.2,3.1,2.8,4.8.6,1.6,2,4.8.2,5.1s-3.5-3.9-3.6-4.5c-.5,1.3-1.1,2.6-1.8,3.9-.7,1.1-1.8,1.3-2.4,0-.3-.6.8-4.5,1.7-6.4s2.1-3.9,3.2-2.9"/>
      <path id="Path_3241" class="cls-1" d="M24.7,129.2c1.2,1.4,2.2,3.1,2.8,4.8.6,1.6,2,4.8.2,5.1s-3.5-3.9-3.6-4.5c-.5,1.3-1.1,2.6-1.8,3.9-.7,1.1-1.8,1.3-2.4,0-.3-.6.8-4.5,1.7-6.4s2.1-3.9,3.2-2.9"/>
      <path id="Path_3242" class="cls-1" d="M24.7,120.1c1.2,1.4,2.2,3.1,2.8,4.8.6,1.6,2,4.8.2,5.1s-3.5-3.9-3.6-4.5c-.5,1.3-1.1,2.6-1.8,3.9-.7,1.1-1.8,1.3-2.4,0-.3-.6.8-4.5,1.7-6.4s2.1-3.9,3.2-2.9"/>
      <path id="Path_3243" class="cls-1" d="M34.1,129.2c1.2,1.4,2.2,3.1,2.8,4.8.6,1.6,2,4.8.2,5.1s-3.5-3.9-3.6-4.5c-.5,1.3-1.1,2.6-1.8,3.9-.7,1.1-1.8,1.3-2.4,0-.3-.6.9-4.5,1.7-6.4s2.1-3.9,3.2-2.9"/>
      <path id="Path_3244" class="cls-1" d="M34.1,120.1c1.2,1.4,2.2,3.1,2.8,4.8.6,1.6,2,4.8.2,5.1s-3.5-3.9-3.6-4.5c-.5,1.3-1.1,2.6-1.8,3.9-.7,1.1-1.8,1.3-2.4,0-.3-.6.9-4.5,1.7-6.4s2.1-3.9,3.2-2.9"/>
      <path id="Path_3245" class="cls-1" d="M43.5,120.1c1.2,1.4,2.2,3.1,2.8,4.8.6,1.6,2,4.8.2,5.1s-3.5-3.9-3.6-4.5c-.5,1.3-1.1,2.6-1.8,3.9-.7,1.1-1.8,1.3-2.4,0-.3-.6.9-4.5,1.7-6.4s2.1-3.9,3.2-2.9"/>
      <path id="Path_3246" class="cls-1" d="M43.5,110.9c1.2,1.4,2.2,3.1,2.8,4.8.6,1.6,2,4.8.2,5.1s-3.5-3.9-3.6-4.5c-.5,1.3-1.1,2.6-1.8,3.9-.7,1.1-1.8,1.3-2.4,0-.3-.6.9-4.5,1.7-6.4s2.1-3.9,3.2-2.9"/>
      <path id="Path_3247" class="cls-1" d="M52.9,110.9c1.2,1.4,2.2,3.1,2.8,4.8.6,1.6,2,4.8.2,5.1s-3.5-3.9-3.6-4.5c-.5,1.3-1.1,2.6-1.8,3.9-.7,1.1-1.8,1.3-2.4,0-.3-.6.9-4.5,1.7-6.4s2.1-3.9,3.2-2.9"/>
      <path id="Path_3248" class="cls-1" d="M52.9,101.7c1.2,1.4,2.2,3.1,2.8,4.8.6,1.6,2,4.8.2,5.1s-3.5-3.9-3.6-4.5c-.5,1.3-1.1,2.6-1.8,3.9-.7,1.1-1.8,1.3-2.4,0-.3-.6.9-4.5,1.7-6.4s2.1-3.9,3.2-2.9"/>
      <path id="Path_3249" class="cls-1" d="M62.3,101.7c1.2,1.4,2.2,3.1,2.8,4.8.6,1.6,2,4.8.2,5.1s-3.5-3.9-3.6-4.5c-.5,1.3-1.1,2.6-1.8,3.9-.7,1.1-1.8,1.3-2.4,0-.3-.6.9-4.5,1.7-6.4s2.1-3.9,3.2-2.9"/>
      <path id="Path_3250" class="cls-1" d="M5.9,156.7c1.2,1.4,2.2,3.1,2.8,4.8.6,1.6,2,4.8.2,5.1s-3.5-3.9-3.6-4.5c-.5,1.3-1.1,2.6-1.8,3.9-.7,1.1-1.8,1.3-2.4,0-.3-.6.9-4.5,1.7-6.4.8-1.9,2.1-3.9,3.2-2.9"/>
      <path id="Path_3251" class="cls-1" d="M5.9,147.6c1.2,1.4,2.2,3.1,2.8,4.8.6,1.6,2,4.8.2,5.1s-3.5-3.9-3.6-4.5c-.5,1.3-1.1,2.6-1.8,3.9-.7,1.1-1.8,1.3-2.5,0-.3-.6.9-4.5,1.7-6.4.8-1.9,2.1-3.9,3.2-2.9"/>
      <path id="Path_3252" class="cls-1" d="M15.3,147.6c1.2,1.4,2.2,3.1,2.8,4.8.6,1.6,2,4.8.2,5.1s-3.5-3.9-3.6-4.5c-.5,1.3-1.1,2.6-1.8,3.9-.7,1.1-1.8,1.3-2.4,0-.3-.6.8-4.5,1.7-6.4s2.1-3.9,3.2-2.9"/>
      <path id="Path_3253" class="cls-1" d="M15.3,138.4c1.2,1.4,2.2,3.1,2.8,4.8.6,1.6,2,4.8.2,5.1s-3.5-3.9-3.6-4.5c-.5,1.3-1.1,2.6-1.8,3.9-.7,1.1-1.8,1.3-2.4,0-.3-.6.8-4.5,1.7-6.4s2.1-3.9,3.2-2.9"/>
      <path id="Path_3254" class="cls-1" d="M24.7,138.4c1.2,1.4,2.2,3.1,2.8,4.8.6,1.6,2,4.8.2,5.1s-3.5-3.9-3.6-4.5c-.5,1.3-1.1,2.6-1.8,3.9-.7,1.1-1.8,1.3-2.4,0-.3-.6.8-4.5,1.7-6.4s2.1-3.9,3.2-2.9"/>
      <path id="Path_3255" class="cls-2" d="M81.1,92.6c1.2,1.4,2.2,3.1,2.8,4.8.6,1.6,2,4.8.2,5.1s-3.5-3.9-3.6-4.5c-.5,1.3-1.1,2.6-1.8,3.9-.7,1.1-1.8,1.3-2.4,0-.3-.6.9-4.5,1.7-6.4s2.1-3.9,3.2-2.9"/>
      <path id="Path_3256" class="cls-2" d="M90.5,83.4c1.2,1.4,2.2,3.1,2.8,4.8.6,1.6,2,4.8.2,5.1s-3.5-3.9-3.6-4.5c-.5,1.3-1.1,2.6-1.8,3.9-.7,1.1-1.8,1.3-2.4,0-.3-.6.9-4.5,1.7-6.4s2.1-3.9,3.2-2.9"/>
      <path id="Path_3257" class="cls-1" d="M81.1,74.3c1.2,1.4,2.2,3.1,2.8,4.8.6,1.6,2,4.8.2,5.1s-3.5-3.9-3.6-4.5c-.5,1.3-1.1,2.6-1.8,3.9-.7,1.1-1.8,1.3-2.4,0-.3-.6.9-4.5,1.7-6.4s2.1-3.9,3.2-2.9"/>
      <path id="Path_3258" class="cls-1" d="M90.5,65.2c1.2,1.4,2.2,3.1,2.8,4.8.6,1.6,2,4.8.2,5.1s-3.5-3.9-3.6-4.5c-.5,1.3-1.1,2.6-1.8,3.9-.7,1.1-1.8,1.3-2.4,0-.3-.6.9-4.5,1.7-6.4s2.1-3.9,3.2-2.9"/>
      <path id="Path_3259" class="cls-2" d="M71.7,83.4c1.2,1.4,2.2,3.1,2.8,4.8.6,1.6,2,4.8.2,5.1s-3.5-3.9-3.6-4.5c-.5,1.3-1.1,2.6-1.8,3.9-.7,1.1-1.8,1.3-2.4,0-.3-.6.9-4.5,1.7-6.4s2.1-3.9,3.2-2.9"/>
      <path id="Path_3260" class="cls-2" d="M34.1,46.8c1.2,1.4,2.2,3.1,2.8,4.8.6,1.6,2,4.8.2,5.1s-3.5-3.9-3.6-4.5c-.5,1.3-1.1,2.6-1.8,3.9-.7,1.1-1.8,1.3-2.4,0-.3-.6.9-4.5,1.7-6.3s2.1-3.9,3.2-2.9"/>
      <path id="Path_3261" class="cls-2" d="M52.9,65.2c1.2,1.4,2.2,3.1,2.8,4.8.6,1.6,2,4.8.2,5.1s-3.5-3.9-3.6-4.5c-.5,1.3-1.1,2.6-1.8,3.9-.7,1.1-1.8,1.3-2.4,0-.3-.6.9-4.5,1.7-6.4s2.1-3.9,3.2-2.9"/>
      <path id="Path_3262" class="cls-2" d="M62.3,74.3c1.2,1.4,2.2,3.1,2.8,4.8.6,1.6,2,4.8.2,5.1s-3.5-3.9-3.6-4.5c-.5,1.3-1.1,2.6-1.8,3.9-.7,1.1-1.8,1.3-2.4,0-.3-.6.9-4.5,1.7-6.4s2.1-3.9,3.2-2.9"/>
      <path id="Path_3263" class="cls-1" d="M62.3,56c1.2,1.4,2.2,3.1,2.8,4.8.6,1.6,2,4.8.2,5.1s-3.5-3.9-3.6-4.5c-.5,1.3-1.1,2.6-1.8,3.9-.7,1.1-1.8,1.3-2.4,0-.3-.6.9-4.5,1.7-6.4s2.1-3.9,3.2-2.9"/>
      <path id="Path_3264" class="cls-1" d="M71.7,65.2c1.2,1.4,2.2,3.1,2.8,4.8.6,1.6,2,4.8.2,5.1s-3.5-3.9-3.6-4.5c-.5,1.3-1.1,2.6-1.8,3.9-.7,1.1-1.8,1.3-2.4,0-.3-.6.9-4.5,1.7-6.4s2.1-3.9,3.2-2.9"/>
      <path id="Path_3265" class="cls-2" d="M43.5,56c1.2,1.4,2.2,3.1,2.8,4.8.6,1.6,2,4.8.2,5.1s-3.5-3.9-3.6-4.5c-.5,1.3-1.1,2.6-1.8,3.9-.7,1.1-1.8,1.3-2.4,0-.3-.6.9-4.5,1.7-6.4s2.1-3.9,3.2-2.9"/>
      <path id="Path_3266" class="cls-1" d="M52.9,46.8c1.2,1.4,2.2,3.1,2.8,4.8.6,1.6,2,4.8.2,5.1s-3.5-3.9-3.6-4.5c-.5,1.3-1.1,2.6-1.8,3.9-.7,1.1-1.8,1.3-2.4,0-.3-.6.9-4.5,1.7-6.3s2.1-3.9,3.2-2.9"/>
      <path id="Path_3267" class="cls-1" d="M15.3,92.6c1.2,1.4,2.2,3.1,2.8,4.8.6,1.6,2,4.8.2,5.1s-3.5-3.9-3.6-4.5c-.5,1.3-1.1,2.6-1.8,3.9-.7,1.1-1.8,1.3-2.4,0-.3-.6.8-4.5,1.7-6.4s2.1-3.9,3.2-2.9"/>
      <path id="Path_3268" class="cls-1" d="M24.7,83.4c1.2,1.4,2.2,3.1,2.8,4.8.6,1.6,2,4.8.2,5.1s-3.5-3.9-3.6-4.5c-.5,1.3-1.1,2.6-1.8,3.9-.7,1.1-1.8,1.3-2.4,0-.3-.6.8-4.5,1.7-6.4.9-1.8,2.1-3.9,3.2-2.9"/>
      <path id="Path_3269" class="cls-1" d="M34.1,83.4c1.2,1.4,2.2,3.1,2.8,4.8.6,1.6,2,4.8.2,5.1s-3.5-3.9-3.6-4.5c-.5,1.3-1.1,2.6-1.8,3.9-.7,1.1-1.8,1.3-2.4,0-.3-.6.9-4.5,1.7-6.4s2.1-3.9,3.2-2.9"/>
      <path id="Path_3270" class="cls-1" d="M43.5,83.4c1.2,1.4,2.2,3.1,2.8,4.8.6,1.6,2,4.8.2,5.1s-3.5-3.9-3.6-4.5c-.5,1.3-1.1,2.6-1.8,3.9-.7,1.1-1.8,1.3-2.4,0-.3-.6.9-4.5,1.7-6.4s2.1-3.9,3.2-2.9"/>
      <path id="Path_3271" class="cls-1" d="M43.5,92.6c1.2,1.4,2.2,3.1,2.8,4.8.6,1.6,2,4.8.2,5.1s-3.5-3.9-3.6-4.5c-.5,1.3-1.1,2.6-1.8,3.9-.7,1.1-1.8,1.3-2.4,0-.3-.6.9-4.5,1.7-6.4s2.1-3.9,3.2-2.9"/>
      <path id="Path_3272" class="cls-1" d="M52.9,92.6c1.2,1.4,2.2,3.1,2.8,4.8.6,1.6,2,4.8.2,5.1s-3.5-3.9-3.6-4.5c-.5,1.3-1.1,2.6-1.8,3.9-.7,1.1-1.8,1.3-2.4,0-.3-.6.9-4.5,1.7-6.4s2.1-3.9,3.2-2.9"/>
      <path id="Path_3273" class="cls-1" d="M5.9,56c1.2,1.4,2.2,3.1,2.8,4.8.6,1.6,2,4.8.2,5.1s-3.5-3.9-3.6-4.5c-.5,1.3-1.1,2.6-1.8,3.9-.7,1.1-1.8,1.3-2.4,0-.3-.6.9-4.5,1.7-6.4.8-1.9,2.1-3.9,3.2-2.9"/>
      <path id="Path_3274" class="cls-1" d="M15.3,65.2c1.2,1.4,2.2,3.1,2.8,4.8.6,1.6,2,4.8.2,5.1s-3.5-3.9-3.6-4.5c-.5,1.3-1.1,2.6-1.8,3.9-.7,1.1-1.8,1.3-2.4,0-.3-.6.8-4.5,1.7-6.4s2.1-3.9,3.2-2.9"/>
      <path id="Path_3275" class="cls-1" d="M5.9,46.8c1.2,1.4,2.2,3.1,2.8,4.8.6,1.6,2,4.8.2,5.1s-3.5-3.9-3.6-4.5c-.5,1.3-1.1,2.6-1.8,3.9-.7,1.1-1.8,1.3-2.4,0-.3-.6.9-4.5,1.7-6.3.8-1.8,2.1-3.9,3.2-2.9"/>
      <path id="Path_3276" class="cls-1" d="M15.3,56c1.2,1.4,2.2,3.1,2.8,4.8.6,1.6,2,4.8.2,5.1s-3.5-3.9-3.6-4.5c-.5,1.3-1.1,2.6-1.8,3.9-.7,1.1-1.8,1.3-2.4,0-.3-.6.8-4.5,1.7-6.4s2.1-3.9,3.2-2.9"/>
      <path id="Path_3277" class="cls-1" d="M24.7,74.3c1.2,1.4,2.2,3.1,2.8,4.8.6,1.6,2,4.8.2,5.1s-3.5-3.9-3.6-4.5c-.5,1.3-1.1,2.6-1.8,3.9-.7,1.1-1.8,1.3-2.4,0-.3-.6.8-4.5,1.7-6.4s2.1-3.9,3.2-2.9"/>
      <path id="Path_3278" class="cls-1" d="M24.7,65.2c1.2,1.4,2.2,3.1,2.8,4.8.6,1.6,2,4.8.2,5.1s-3.5-3.9-3.6-4.5c-.5,1.3-1.1,2.6-1.8,3.9-.7,1.1-1.8,1.3-2.4,0-.3-.6.8-4.5,1.7-6.4s2.1-3.9,3.2-2.9"/>
      <path id="Path_3279" class="cls-1" d="M34.1,74.3c1.2,1.4,2.2,3.1,2.8,4.8.6,1.6,2,4.8.2,5.1s-3.5-3.9-3.6-4.5c-.5,1.3-1.1,2.6-1.8,3.9-.7,1.1-1.8,1.3-2.4,0-.3-.6.9-4.5,1.7-6.4s2.1-3.9,3.2-2.9"/>
      <path id="Path_3280" class="cls-2" d="M6.1,165.9c1.2,1.4,2.2,3.1,2.8,4.8.6,1.6,2,4.8.2,5.1s-3.5-3.9-3.6-4.5c-.5,1.3-1.1,2.6-1.8,3.9-.7,1.1-1.8,1.3-2.4,0-.3-.6.9-4.5,1.7-6.4.8-1.8,2.1-3.9,3.2-2.9"/>
      <path id="Path_3281" class="cls-2" d="M15.2,165.9c1.2,1.4,2.2,3.1,2.8,4.8.6,1.6,2,4.8.2,5.1s-3.5-3.9-3.6-4.5c-.5,1.3-1.1,2.6-1.8,3.9-.7,1.1-1.8,1.3-2.4,0-.3-.6.8-4.5,1.7-6.4s2.1-3.9,3.2-2.9"/>
      <path id="Path_3282" class="cls-2" d="M24.6,165.9c1.2,1.4,2.2,3.1,2.8,4.8.6,1.6,2,4.8.2,5.1s-3.5-3.9-3.6-4.5c-.5,1.3-1.1,2.6-1.8,3.9-.7,1.1-1.8,1.3-2.4,0-.3-.6.8-4.5,1.7-6.4s2.1-3.9,3.2-2.9"/>
      <path id="Path_3283" class="cls-2" d="M34,165.9c1.2,1.4,2.2,3.1,2.8,4.8.6,1.6,2,4.8.2,5.1s-3.5-3.9-3.6-4.5c-.5,1.3-1.1,2.6-1.8,3.9-.7,1.1-1.8,1.3-2.4,0-.3-.6.9-4.5,1.7-6.4s2.1-3.9,3.2-2.9"/>
      <path id="Path_3284" class="cls-2" d="M43.4,165.9c1.2,1.4,2.2,3.1,2.8,4.8.6,1.6,2,4.8.2,5.1s-3.5-3.9-3.6-4.5c-.5,1.3-1.1,2.6-1.8,3.9-.7,1.1-1.8,1.3-2.4,0-.3-.6.9-4.5,1.7-6.4s2.1-3.9,3.2-2.9"/>
      <path id="Path_3285" class="cls-2" d="M52.8,165.9c1.2,1.4,2.2,3.1,2.8,4.8.6,1.6,2,4.8.2,5.1s-3.5-3.9-3.6-4.5c-.5,1.3-1.1,2.6-1.8,3.9-.7,1.1-1.8,1.3-2.4,0-.3-.6.9-4.5,1.7-6.4s2.1-3.9,3.2-2.9"/>
      <path id="Path_3286" class="cls-2" d="M62.2,165.9c1.2,1.4,2.2,3.1,2.8,4.8.6,1.6,2,4.8.2,5.1s-3.5-3.9-3.6-4.5c-.5,1.3-1.1,2.6-1.8,3.9-.7,1.1-1.8,1.3-2.4,0-.3-.6.9-4.5,1.7-6.4s2.1-3.9,3.2-2.9"/>
      <path id="Path_3287" class="cls-2" d="M71.6,165.9c1.2,1.4,2.2,3.1,2.8,4.8.6,1.6,2,4.8.2,5.1s-3.5-3.9-3.6-4.5c-.5,1.3-1.1,2.6-1.8,3.9-.7,1.1-1.8,1.3-2.4,0-.3-.6.9-4.5,1.7-6.4s2.1-3.9,3.2-2.9"/>
      <path id="Path_3288" class="cls-2" d="M80.7,165.9c1.2,1.4,2.2,3.1,2.8,4.8.6,1.6,2,4.8.2,5.1s-3.5-3.9-3.6-4.5c-.5,1.3-1.1,2.6-1.8,3.9-.7,1.1-1.8,1.3-2.4,0-.3-.6.9-4.5,1.7-6.4s2.1-3.9,3.2-2.9"/>
      <path id="Path_3289" class="cls-2" d="M90.1,165.9c1.2,1.4,2.2,3.1,2.8,4.8.6,1.6,2,4.8.2,5.1s-3.5-3.9-3.6-4.5c-.5,1.3-1.1,2.6-1.8,3.9-.7,1.1-1.8,1.3-2.4,0-.3-.6.9-4.5,1.7-6.4s2.1-3.9,3.2-2.9"/>
      <path id="Path_3290" class="cls-1" d="M5.6,129.3c1.2,1.4,2.2,3.1,2.8,4.8.6,1.6,2,4.8.2,5.1s-3.5-3.9-3.6-4.5c-.5,1.3-1.1,2.6-1.8,3.9-.7,1.1-1.8,1.3-2.4,0-.3-.6.9-4.5,1.7-6.4.8-1.8,2.1-3.9,3.2-2.9"/>
      <path id="Path_3291" class="cls-1" d="M34,101.8c1.2,1.4,2.2,3.1,2.8,4.8.6,1.6,2,4.8.2,5.1s-3.5-3.9-3.6-4.5c-.5,1.3-1.1,2.6-1.8,3.9-.7,1.1-1.8,1.3-2.4,0-.3-.6.9-4.5,1.7-6.4s2.1-3.9,3.2-2.9"/>
      <path id="Path_3292" class="cls-1" d="M5.8,74.2c1.2,1.4,2.2,3.1,2.8,4.8.6,1.6,2,4.8.2,5.1s-3.5-3.9-3.6-4.5c-.5,1.3-1.1,2.6-1.8,3.9-.7,1.1-1.8,1.3-2.4,0-.3-.6.9-4.5,1.7-6.4.8-1.8,2.1-3.9,3.2-2.9"/>
      <path id="Path_3293" class="cls-2" d="M62.3,37.4c1.2,1.4,2.2,3.1,2.8,4.9.6,1.6,2,4.9.2,5.1s-3.5-3.9-3.6-4.6c-.5,1.3-1.1,2.7-1.8,3.9-.7,1.1-1.8,1.3-2.4,0-.3-.7.9-4.6,1.7-6.4s2.1-3.9,3.2-2.9"/>
      <path id="Path_3294" class="cls-2" d="M71.7,46.7c1.2,1.4,2.2,3.1,2.8,4.9.6,1.6,2,4.9.2,5.1s-3.5-3.9-3.6-4.6c-.5,1.4-1.1,2.7-1.8,3.9-.7,1.1-1.8,1.3-2.4,0-.3-.7.9-4.6,1.7-6.4s2.1-3.9,3.2-2.9"/>
      <path id="Path_3295" class="cls-2" d="M71.7,37.4c1.2,1.4,2.2,3.1,2.8,4.9.6,1.6,2,4.9.2,5.1s-3.5-3.9-3.6-4.6c-.5,1.4-1.1,2.7-1.8,3.9-.7,1.1-1.8,1.3-2.4,0-.3-.7.9-4.6,1.7-6.4s2.1-3.9,3.2-2.9"/>
      <path id="Path_3296" class="cls-2" d="M81.1,55.9c1.2,1.4,2.2,3.1,2.8,4.9.6,1.6,2,4.9.2,5.1s-3.5-3.9-3.6-4.6c-.5,1.3-1.1,2.7-1.8,3.9-.7,1.1-1.8,1.3-2.4,0-.3-.7.9-4.6,1.7-6.4s2.1-3.9,3.2-2.9"/>
      <path id="Path_3297" class="cls-2" d="M81.1,46.7c1.2,1.4,2.2,3.1,2.8,4.9.6,1.6,2,4.9.2,5.1s-3.5-3.9-3.6-4.6c-.5,1.3-1.1,2.7-1.8,3.9-.7,1.1-1.8,1.3-2.4,0-.3-.7.9-4.6,1.7-6.4s2.1-3.9,3.2-2.9"/>
      <path id="Path_3298" class="cls-2" d="M90.5,46.7c1.2,1.4,2.2,3.1,2.8,4.9.6,1.6,2,4.9.2,5.1s-3.5-3.9-3.6-4.6c-.5,1.3-1.1,2.7-1.8,3.9-.7,1.1-1.8,1.3-2.4,0-.3-.7.9-4.6,1.7-6.4s2.1-3.9,3.2-2.9"/>
      <path id="Path_3299" class="cls-2" d="M90.5,37.4c1.2,1.4,2.2,3.1,2.8,4.9.6,1.6,2,4.9.2,5.1s-3.5-3.9-3.6-4.6c-.5,1.3-1.1,2.7-1.8,3.9-.7,1.1-1.8,1.3-2.4,0-.3-.7.9-4.6,1.7-6.4s2.1-3.9,3.2-2.9"/>
      <path id="Path_3300" class="cls-2" d="M99.9,37.4c1.2,1.4,2.2,3.1,2.8,4.9.6,1.6,2,4.9.2,5.1s-3.5-3.9-3.6-4.6c-.5,1.3-1.1,2.7-1.8,3.9-.7,1.1-1.8,1.3-2.4,0-.3-.7.9-4.6,1.7-6.4.8-1.8,2.1-3.9,3.2-2.9"/>
      <path id="Path_3301" class="cls-2" d="M62.3,18.9c1.2,1.4,2.2,3.1,2.8,4.9.6,1.6,2,4.9.2,5.1s-3.5-3.9-3.6-4.6c-.5,1.3-1.1,2.7-1.8,3.9-.7,1.1-1.8,1.3-2.4,0-.3-.7.9-4.6,1.7-6.4s2.1-3.9,3.2-2.9"/>
      <path id="Path_3302" class="cls-2" d="M71.7,18.9c1.2,1.4,2.2,3.1,2.8,4.9.6,1.6,2,4.9.2,5.1s-3.5-3.9-3.6-4.6c-.5,1.4-1.1,2.7-1.8,3.9-.7,1.1-1.8,1.3-2.4,0-.3-.7.9-4.6,1.7-6.4s2.1-3.9,3.2-2.9"/>
      <path id="Path_3303" class="cls-2" d="M71.7,9.7c1.2,1.4,2.2,3.1,2.8,4.9.6,1.6,2,4.9.2,5.1s-3.5-3.9-3.6-4.6c-.5,1.4-1.1,2.7-1.8,3.9-.7,1.1-1.8,1.3-2.4,0-.3-.7.9-4.6,1.7-6.4s2.1-3.9,3.2-2.9"/>
      <path id="Path_3304" class="cls-2" d="M81.1,9.7c1.2,1.4,2.2,3.1,2.8,4.9.6,1.6,2,4.9.2,5.1s-3.5-3.9-3.6-4.6c-.5,1.3-1.1,2.7-1.8,3.9-.7,1.1-1.8,1.3-2.4,0-.3-.7.9-4.6,1.7-6.4s2.1-3.9,3.2-2.9"/>
      <path id="Path_3305" class="cls-2" d="M81.1.5c1.2,1.4,2.2,3.1,2.8,4.9.6,1.6,2,4.9.2,5.1s-3.5-3.9-3.6-4.6c-.5,1.3-1.1,2.7-1.8,3.9-.7,1.1-1.8,1.3-2.4,0-.3-.7.9-4.6,1.7-6.4s2.1-3.9,3.2-2.9"/>
      <path id="Path_3306" class="cls-2" d="M90.5,18.9c1.2,1.4,2.2,3.1,2.8,4.9.6,1.6,2,4.9.2,5.1s-3.5-3.9-3.6-4.6c-.5,1.3-1.1,2.7-1.8,3.9-.7,1.1-1.8,1.3-2.4,0-.3-.7.9-4.6,1.7-6.4s2.1-3.9,3.2-2.9"/>
      <path id="Path_3307" class="cls-2" d="M90.5,9.7c1.2,1.4,2.2,3.1,2.8,4.9.6,1.6,2,4.9.2,5.1s-3.5-3.9-3.6-4.6c-.5,1.3-1.1,2.7-1.8,3.9-.7,1.1-1.8,1.3-2.4,0-.3-.7.9-4.6,1.7-6.4s2.1-3.9,3.2-2.9"/>
      <path id="Path_3308" class="cls-2" d="M99.9,18.9c1.2,1.4,2.2,3.1,2.8,4.9.6,1.6,2,4.9.2,5.1s-3.5-3.9-3.6-4.6c-.5,1.3-1.1,2.7-1.8,3.9-.7,1.1-1.8,1.3-2.4,0-.3-.7.9-4.6,1.7-6.4.8-1.8,2.1-3.9,3.2-2.9"/>
      <path id="Path_3309" class="cls-2" d="M52.9,28.2c1.2,1.4,2.2,3.1,2.8,4.9.6,1.6,2,4.9.2,5.1s-3.5-3.9-3.6-4.6c-.5,1.3-1.1,2.7-1.8,3.9-.7,1.1-1.8,1.3-2.4,0-.3-.7.9-4.6,1.7-6.4.8-1.8,2.1-3.9,3.2-2.9"/>
      <path id="Path_3310" class="cls-1" d="M81.1,28.2c1.2,1.4,2.2,3.1,2.8,4.9.6,1.6,2,4.9.2,5.1s-3.5-3.9-3.6-4.6c-.5,1.3-1.1,2.7-1.8,3.9-.7,1.1-1.8,1.3-2.4,0-.3-.7.9-4.6,1.7-6.4s2.1-3.9,3.2-2.9"/>
      <path id="Path_3311" class="cls-2" d="M109.3,28.2c1.2,1.4,2.2,3.1,2.8,4.9.6,1.6,2,4.9.2,5.1s-3.5-3.9-3.6-4.6c-.5,1.3-1.1,2.7-1.8,3.9-.7,1.1-1.8,1.3-2.4,0-.3-.7.8-4.6,1.7-6.4s2.1-3.9,3.2-2.9"/>
      <path id="Path_3312" class="cls-2" d="M5.8,19.1c1.2,1.4,2.2,3.1,2.8,4.9.6,1.6,2.1,4.9.2,5.1s-3.6-3.9-3.7-4.6c-.5,1.4-1.1,2.7-1.8,3.9-.8,1.1-1.8,1.3-2.5,0-.3-.7.9-4.6,1.7-6.4.8-1.8,2.2-3.9,3.2-2.9"/>
      <path id="Path_3313" class="cls-1" d="M5.8,9.9c1.2,1.4,2.2,3.1,2.8,4.9.6,1.6,2.1,4.9.2,5.1s-3.6-3.9-3.7-4.6c-.5,1.4-1.1,2.7-1.8,3.9-.8,1.1-1.8,1.3-2.5,0-.3-.7.9-4.6,1.7-6.4.8-1.8,2.2-3.9,3.2-2.9"/>
      <path id="Path_3314" class="cls-1" d="M15.3,19.1c1.2,1.4,2.2,3.1,2.8,4.9.6,1.6,2.1,4.9.2,5.1s-3.6-3.9-3.7-4.6c-.5,1.4-1.1,2.7-1.8,3.9-.8,1.1-1.8,1.3-2.5,0-.3-.7.9-4.6,1.7-6.4s2.2-3.9,3.2-2.9"/>
      <path id="Path_3315" class="cls-2" d="M146.9,129.4c1.2,1.4,2.1,3,2.7,4.7.6,1.6,2,4.7.2,4.9s-3.4-3.7-3.5-4.4c-.5,1.3-1.1,2.5-1.8,3.7-.7,1-1.7,1.3-2.4,0-.3-.6.8-4.4,1.7-6.1s2.1-3.7,3.1-2.8"/>
      <path id="Path_3319" class="cls-2" d="M146.8,74.1c1.2,1.4,2.1,3,2.7,4.7.6,1.6,2,4.7.2,4.9s-3.4-3.7-3.5-4.4c-.5,1.3-1.1,2.5-1.8,3.7-.7,1-1.7,1.3-2.4,0-.3-.6.8-4.4,1.7-6.1s2.1-3.7,3.1-2.8"/>
      <path id="Path_3327" class="cls-2" d="M118.7,101.9c1.2,1.4,2.1,3,2.7,4.7.6,1.6,2,4.7.2,4.9s-3.4-3.7-3.5-4.4c-.5,1.3-1.1,2.5-1.8,3.7-.7,1-1.7,1.3-2.4,0-.3-.6.8-4.4,1.7-6.1s2.1-3.7,3.1-2.8"/>
      <path id="Path_3328" class="cls-2" d="M127.8,110.8c1.2,1.4,2.1,3,2.7,4.7.6,1.6,2,4.7.2,4.9s-3.4-3.7-3.5-4.4c-.5,1.3-1.1,2.5-1.8,3.7-.7,1-1.7,1.3-2.4,0-.3-.6.8-4.4,1.7-6.1s2.1-3.7,3.1-2.8"/>
      <path id="Path_3329" class="cls-2" d="M137,101.9c1.2,1.4,2.1,3,2.7,4.7.6,1.6,2,4.7.2,4.9s-3.4-3.7-3.5-4.4c-.5,1.3-1.1,2.5-1.8,3.7-.7,1-1.7,1.3-2.4,0-.3-.6.8-4.4,1.7-6.1s2.1-3.7,3.1-2.8"/>
      <path id="Path_3330" class="cls-2" d="M127.8,93.1c1.2,1.4,2.1,3,2.7,4.7.6,1.6,2,4.7.2,4.9s-3.4-3.7-3.5-4.4c-.5,1.3-1.1,2.5-1.8,3.7-.7,1-1.7,1.3-2.4,0-.3-.6.8-4.4,1.7-6.1s2.1-3.7,3.1-2.8"/>
      <path id="Path_3345" class="cls-1" d="M99.6,156.7c1.2,1.4,2.2,3.1,2.8,4.8.6,1.6,2,4.8.2,5.1s-3.5-3.9-3.6-4.5c-.5,1.3-1.1,2.6-1.8,3.9-.7,1.1-1.8,1.3-2.4,0-.3-.6.9-4.5,1.7-6.4s2.1-3.9,3.2-2.9"/>
      <path id="Path_3346" class="cls-2" d="M99.6,129.2c1.2,1.4,2.2,3.1,2.8,4.8.6,1.6,2,4.8.2,5.1s-3.5-3.9-3.6-4.5c-.5,1.3-1.1,2.6-1.8,3.9-.7,1.1-1.8,1.3-2.4,0-.3-.6.9-4.5,1.7-6.4s2.1-3.9,3.2-2.9"/>
      <path id="Path_3347" class="cls-2" d="M109,138.4c1.2,1.4,2.2,3.1,2.8,4.8.6,1.6,2,4.8.2,5.1s-3.5-3.9-3.6-4.5c-.5,1.3-1.1,2.6-1.8,3.9-.7,1.1-1.8,1.3-2.4,0-.3-.6.9-4.5,1.7-6.4s2.1-3.9,3.2-2.9"/>
      <path id="Path_3348" class="cls-2" d="M118.4,147.6c1.2,1.4,2.2,3.1,2.8,4.8.6,1.6,2,4.8.2,5.1s-3.5-3.9-3.6-4.5c-.5,1.3-1.1,2.6-1.8,3.9-.7,1.1-1.8,1.3-2.4,0-.3-.6.8-4.5,1.7-6.4s2.1-3.9,3.2-2.9"/>
      <path id="Path_3349" class="cls-2" d="M127.8,156.7c1.2,1.4,2.2,3.1,2.8,4.8.6,1.6,2,4.8.2,5.1s-3.5-3.9-3.6-4.5c-.5,1.3-1.1,2.6-1.8,3.9-.7,1.1-1.8,1.3-2.4,0-.3-.6.8-4.5,1.7-6.4s2.1-3.9,3.2-2.9"/>
      <path id="Path_3350" class="cls-1" d="M99.7,101.7c1.2,1.4,2.2,3.1,2.8,4.8.6,1.6,2,4.8.2,5.1s-3.5-3.9-3.6-4.5c-.5,1.3-1.1,2.6-1.8,3.9-.7,1.1-1.8,1.3-2.4,0-.3-.6.9-4.5,1.7-6.4s2.1-3.9,3.2-2.9"/>
      <path id="Path_3351" class="cls-1" d="M109.1,110.9c1.2,1.4,2.2,3.1,2.8,4.8.6,1.6,2,4.8.2,5.1s-3.5-3.9-3.6-4.5c-.5,1.3-1.1,2.6-1.8,3.9-.7,1.1-1.8,1.3-2.4,0-.3-.6.8-4.5,1.7-6.4s2.1-3.9,3.2-2.9"/>
      <path id="Path_3352" class="cls-1" d="M109.1,101.7c1.2,1.4,2.2,3.1,2.8,4.8.6,1.6,2,4.8.2,5.1s-3.5-3.9-3.6-4.5c-.5,1.3-1.1,2.6-1.8,3.9-.7,1.1-1.8,1.3-2.4,0-.3-.6.8-4.5,1.7-6.4s2.1-3.9,3.2-2.9"/>
      <path id="Path_3353" class="cls-1" d="M118.5,120.1c1.2,1.4,2.2,3.1,2.8,4.8.6,1.6,2,4.8.2,5.1s-3.5-3.9-3.6-4.5c-.5,1.3-1.1,2.6-1.8,3.9-.7,1.1-1.8,1.3-2.4,0-.3-.6.8-4.5,1.7-6.4s2.1-3.9,3.2-2.9"/>
      <path id="Path_3354" class="cls-1" d="M118.5,110.9c1.2,1.4,2.2,3.1,2.8,4.8.6,1.6,2,4.8.2,5.1s-3.5-3.9-3.6-4.5c-.5,1.3-1.1,2.6-1.8,3.9-.7,1.1-1.8,1.3-2.4,0-.3-.6.8-4.5,1.7-6.4s2.1-3.9,3.2-2.9"/>
      <path id="Path_3355" class="cls-1" d="M127.9,129.2c1.2,1.4,2.2,3.1,2.8,4.8.6,1.6,2,4.8.2,5.1s-3.5-3.9-3.6-4.5c-.5,1.3-1.1,2.6-1.8,3.9-.7,1.1-1.8,1.3-2.4,0-.3-.6.8-4.5,1.7-6.4s2.1-3.9,3.2-2.9"/>
      <path id="Path_3356" class="cls-1" d="M127.9,120.1c1.2,1.4,2.2,3.1,2.8,4.8.6,1.6,2,4.8.2,5.1s-3.5-3.9-3.6-4.5c-.5,1.3-1.1,2.6-1.8,3.9-.7,1.1-1.8,1.3-2.4,0-.3-.6.8-4.5,1.7-6.4s2.1-3.9,3.2-2.9"/>
      <path id="Path_3357" class="cls-1" d="M137.3,129.2c1.2,1.4,2.2,3.1,2.8,4.8.6,1.6,2,4.8.2,5.1s-3.5-3.9-3.6-4.5c-.5,1.3-1.1,2.6-1.8,3.9-.7,1.1-1.8,1.3-2.4,0-.3-.6.8-4.5,1.7-6.4s2.1-3.9,3.2-2.9"/>
      <path id="Path_3358" class="cls-1" d="M137.3,120.1c1.2,1.4,2.2,3.1,2.8,4.8.6,1.6,2,4.8.2,5.1s-3.5-3.9-3.6-4.5c-.5,1.3-1.1,2.6-1.8,3.9-.7,1.1-1.8,1.3-2.4,0-.3-.6.8-4.5,1.7-6.4s2.1-3.9,3.2-2.9"/>
      <path id="Path_3359" class="cls-1" d="M146.7,110.9c1.2,1.4,2.2,3.1,2.8,4.8.6,1.6,2,4.8.2,5.1s-3.5-3.9-3.6-4.5c-.5,1.3-1.1,2.6-1.8,3.9-.7,1.1-1.8,1.3-2.4,0-.3-.6.8-4.5,1.7-6.4s2.1-3.9,3.2-2.9"/>
      <path id="Path_3371" class="cls-1" d="M137.3,138.4c1.2,1.4,2.2,3.1,2.8,4.8.6,1.6,2,4.8.2,5.1s-3.5-3.9-3.6-4.5c-.5,1.3-1.1,2.6-1.8,3.9-.7,1.1-1.8,1.3-2.4,0-.3-.6.8-4.5,1.7-6.4s2.1-3.9,3.2-2.9"/>
      <path id="Path_3372" class="cls-1" d="M146.7,147.6c1.2,1.4,2.2,3.1,2.8,4.8.6,1.6,2,4.8.2,5.1s-3.5-3.9-3.6-4.5c-.5,1.3-1.1,2.6-1.8,3.9-.7,1.1-1.8,1.3-2.4,0-.3-.6.8-4.5,1.7-6.4s2.1-3.9,3.2-2.9"/>
      <path id="Path_3373" class="cls-1" d="M146.7,138.4c1.2,1.4,2.2,3.1,2.8,4.8.6,1.6,2,4.8.2,5.1s-3.5-3.9-3.6-4.5c-.5,1.3-1.1,2.6-1.8,3.9-.7,1.1-1.8,1.3-2.4,0-.3-.6.8-4.5,1.7-6.4s2.1-3.9,3.2-2.9"/>
      <path id="Path_3391" class="cls-1" d="M109.1,92.6c1.2,1.4,2.2,3.1,2.8,4.8.6,1.6,2,4.8.2,5.1s-3.5-3.9-3.6-4.5c-.5,1.3-1.1,2.6-1.8,3.9-.7,1.1-1.8,1.3-2.4,0-.3-.6.8-4.5,1.7-6.4s2.1-3.9,3.2-2.9"/>
      <path id="Path_3392" class="cls-1" d="M118.5,83.4c1.2,1.4,2.2,3.1,2.8,4.8.6,1.6,2,4.8.2,5.1s-3.5-3.9-3.6-4.5c-.5,1.3-1.1,2.6-1.8,3.9-.7,1.1-1.8,1.3-2.4,0-.3-.6.8-4.5,1.7-6.4s2.1-3.9,3.2-2.9"/>
      <path id="Path_3393" class="cls-1" d="M118.5,92.6c1.2,1.4,2.2,3.1,2.8,4.8.6,1.6,2,4.8.2,5.1s-3.5-3.9-3.6-4.5c-.5,1.3-1.1,2.6-1.8,3.9-.7,1.1-1.8,1.3-2.4,0-.3-.6.8-4.5,1.7-6.4s2.1-3.9,3.2-2.9"/>
      <path id="Path_3394" class="cls-1" d="M127.9,83.4c1.2,1.4,2.2,3.1,2.8,4.8.6,1.6,2,4.8.2,5.1s-3.5-3.9-3.6-4.5c-.5,1.3-1.1,2.6-1.8,3.9-.7,1.1-1.8,1.3-2.4,0-.3-.6.8-4.5,1.7-6.4s2.1-3.9,3.2-2.9"/>
      <path id="Path_3395" class="cls-1" d="M137.3,83.4c1.2,1.4,2.2,3.1,2.8,4.8.6,1.6,2,4.8.2,5.1s-3.5-3.9-3.6-4.5c-.5,1.3-1.1,2.6-1.8,3.9-.7,1.1-1.8,1.3-2.4,0-.3-.6.8-4.5,1.7-6.4s2.1-3.9,3.2-2.9"/>
      <path id="Path_3396" class="cls-1" d="M146.7,92.6c1.2,1.4,2.2,3.1,2.8,4.8.6,1.6,2,4.8.2,5.1s-3.5-3.9-3.6-4.5c-.5,1.3-1.1,2.6-1.8,3.9-.7,1.1-1.8,1.3-2.4,0-.3-.6.8-4.5,1.7-6.4s2.1-3.9,3.2-2.9"/>
      <path id="Path_3403" class="cls-1" d="M146.7,65.2c1.2,1.4,2.2,3.1,2.8,4.8.6,1.6,2,4.8.2,5.1s-3.5-3.9-3.6-4.5c-.5,1.3-1.1,2.6-1.8,3.9-.7,1.1-1.8,1.3-2.4,0-.3-.6.8-4.5,1.7-6.4s2.1-3.9,3.2-2.9"/>
      <path id="Path_3406" class="cls-1" d="M127.9,74.3c1.2,1.4,2.2,3.1,2.8,4.8.6,1.6,2,4.8.2,5.1s-3.5-3.9-3.6-4.5c-.5,1.3-1.1,2.6-1.8,3.9-.7,1.1-1.8,1.3-2.4,0-.3-.6.8-4.5,1.7-6.4s2.1-3.9,3.2-2.9"/>
      <path id="Path_3407" class="cls-1" d="M137.3,74.3c1.2,1.4,2.2,3.1,2.8,4.8.6,1.6,2,4.8.2,5.1s-3.5-3.9-3.6-4.5c-.5,1.3-1.1,2.6-1.8,3.9-.7,1.1-1.8,1.3-2.4,0-.3-.6.8-4.5,1.7-6.4s2.1-3.9,3.2-2.9"/>
      <path id="Path_3408" class="cls-1" d="M137.3,65.2c1.2,1.4,2.2,3.1,2.8,4.8.6,1.6,2,4.8.2,5.1s-3.5-3.9-3.6-4.5c-.5,1.3-1.1,2.6-1.8,3.9-.7,1.1-1.8,1.3-2.4,0-.3-.6.8-4.5,1.7-6.4s2.1-3.9,3.2-2.9"/>
      <path id="Path_3409" class="cls-1" d="M146.7,56c1.2,1.4,2.2,3.1,2.8,4.8.6,1.6,2,4.8.2,5.1s-3.5-3.9-3.6-4.5c-.5,1.3-1.1,2.6-1.8,3.9-.7,1.1-1.8,1.3-2.4,0-.3-.6.8-4.5,1.7-6.4s2.1-3.9,3.2-2.9"/>
      <path id="Path_3415" class="cls-2" d="M99.6,74.3c1.2,1.4,2.2,3.1,2.8,4.8.6,1.6,2,4.8.2,5.1s-3.5-3.9-3.6-4.5c-.5,1.3-1.1,2.6-1.8,3.9-.7,1.1-1.8,1.3-2.4,0-.3-.6.9-4.5,1.7-6.4s2.1-3.9,3.2-2.9"/>
      <path id="Path_3416" class="cls-1" d="M99.6,56c1.2,1.4,2.2,3.1,2.8,4.8.6,1.6,2,4.8.2,5.1s-3.5-3.9-3.6-4.5c-.5,1.3-1.1,2.6-1.8,3.9-.7,1.1-1.8,1.3-2.4,0-.3-.6.9-4.5,1.7-6.4s2.1-3.9,3.2-2.9"/>
      <path id="Path_3417" class="cls-2" d="M109,65.2c1.2,1.4,2.2,3.1,2.8,4.8.6,1.6,2,4.8.2,5.1s-3.5-3.9-3.6-4.5c-.5,1.3-1.1,2.6-1.8,3.9-.7,1.1-1.8,1.3-2.4,0-.3-.6.8-4.5,1.7-6.4s2.1-3.9,3.2-2.9"/>
      <path id="Path_3418" class="cls-1" d="M109,46.8c1.2,1.4,2.2,3.1,2.8,4.8.6,1.6,2,4.8.2,5.1s-3.5-3.9-3.6-4.5c-.5,1.3-1.1,2.6-1.8,3.9-.7,1.1-1.8,1.3-2.4,0-.3-.6.8-4.5,1.7-6.3s2.1-3.9,3.2-2.9"/>
      <path id="Path_3419" class="cls-2" d="M118.4,56c1.2,1.4,2.2,3.1,2.8,4.8.6,1.6,2,4.8.2,5.1s-3.5-3.9-3.6-4.5c-.5,1.3-1.1,2.6-1.8,3.9-.7,1.1-1.8,1.3-2.4,0-.3-.6.8-4.5,1.7-6.4s2.1-3.9,3.2-2.9"/>
      <path id="Path_3420" class="cls-2" d="M127.8,46.8c1.2,1.4,2.2,3.1,2.8,4.8.6,1.6,2,4.8.2,5.1s-3.5-3.9-3.6-4.5c-.5,1.3-1.1,2.6-1.8,3.9-.7,1.1-1.8,1.3-2.4,0-.3-.6.8-4.5,1.7-6.3s2.1-3.9,3.2-2.9"/>
      <path id="Path_3421" class="cls-2" d="M99.9,165.9c1.2,1.4,2.2,3.1,2.8,4.8.6,1.6,2,4.8.2,5.1s-3.5-3.9-3.6-4.5c-.5,1.3-1.1,2.6-1.8,3.9-.7,1.1-1.8,1.3-2.4,0-.3-.6.9-4.5,1.7-6.4s2.1-3.9,3.2-2.9"/>
      <path id="Path_3422" class="cls-2" d="M109.3,165.9c1.2,1.4,2.2,3.1,2.8,4.8.6,1.6,2,4.8.2,5.1s-3.5-3.9-3.6-4.5c-.5,1.3-1.1,2.6-1.8,3.9-.7,1.1-1.8,1.3-2.4,0-.3-.6.8-4.5,1.7-6.4s2.1-3.9,3.2-2.9"/>
      <path id="Path_3423" class="cls-2" d="M118.7,165.9c1.2,1.4,2.2,3.1,2.8,4.8.6,1.6,2,4.8.2,5.1s-3.5-3.9-3.6-4.5c-.5,1.3-1.1,2.6-1.8,3.9-.7,1.1-1.8,1.3-2.5,0-.3-.6.8-4.5,1.7-6.4s2.1-3.9,3.2-2.9"/>
      <path id="Path_3424" class="cls-2" d="M128.1,165.9c1.2,1.4,2.2,3.1,2.8,4.8.6,1.6,2,4.8.2,5.1s-3.5-3.9-3.6-4.5c-.5,1.3-1.1,2.6-1.8,3.9-.7,1.1-1.8,1.3-2.4,0-.3-.6.8-4.5,1.7-6.4s2.1-3.9,3.2-2.9"/>
      <path id="Path_3425" class="cls-2" d="M137.5,165.9c1.2,1.4,2.2,3.1,2.8,4.8.6,1.6,2,4.8.2,5.1s-3.5-3.9-3.6-4.5c-.5,1.3-1.1,2.6-1.8,3.9-.7,1.1-1.8,1.3-2.4,0-.3-.6.8-4.5,1.7-6.4s2.1-3.9,3.2-2.9"/>
      <path id="Path_3426" class="cls-2" d="M146.9,165.9c1.2,1.4,2.2,3.1,2.8,4.8.6,1.6,2,4.8.2,5.1s-3.5-3.9-3.6-4.5c-.5,1.3-1.1,2.6-1.8,3.9-.7,1.1-1.8,1.3-2.4,0-.3-.6.8-4.5,1.7-6.4s2.1-3.9,3.2-2.9"/>
      <path id="Path_3458" class="cls-1" d="M146.4,19.1c1.2,1.4,2.2,3.1,2.8,4.9.7,1.6,2.1,4.9.2,5.1s-3.6-3.9-3.7-4.6c-.5,1.3-1.1,2.7-1.8,3.9-.8,1.1-1.8,1.3-2.5,0-.3-.7.9-4.6,1.7-6.4s2.2-3.9,3.2-2.9"/>
      <path id="Path_3461" class="cls-1" d="M5.8,28.1c1.2,1.4,2.2,3.1,2.8,4.9.6,1.6,2.1,4.9.2,5.1s-3.6-3.9-3.7-4.6c-.5,1.4-1.1,2.7-1.8,3.9-.8,1.1-1.8,1.3-2.5,0-.3-.7.9-4.6,1.7-6.4.9-1.8,2.2-3.9,3.2-2.9"/>
      <path id="Path_3807" class="cls-2" d="M4.3,181c-.5,1.3-1.1,2.6-1.8,3.9C1.8,186,.7,186.2,0,184.9c-.3-.6.9-4.5,1.7-6.4.8-1.8,2.1-3.9,3.2-2.9,1.2,1.4,2.2,3.1,2.8,4.9.6,1.6,2,4.8.2,5.1s-3.5-3.9-3.6-4.5"/>
      <path id="Path_3808" class="cls-2" d="M13.7,181c-.5,1.3-1.1,2.6-1.8,3.9-.7,1.1-1.8,1.3-2.5,0-.3-.6.9-4.5,1.7-6.4s2.1-3.9,3.2-2.9c1.2,1.4,2.2,3.1,2.8,4.9.6,1.6,2,4.8.2,5.1s-3.5-3.9-3.6-4.5"/>
      <path id="Path_3809" class="cls-2" d="M23.1,181c-.5,1.3-1.1,2.6-1.8,3.9-.7,1.1-1.8,1.3-2.4,0-.3-.6.9-4.5,1.7-6.4.8-1.8,2.1-3.9,3.2-2.9,1.2,1.4,2.2,3.1,2.8,4.9.6,1.6,2,4.8.2,5.1s-3.5-3.9-3.6-4.5"/>
      <path id="Path_3810" class="cls-2" d="M32.5,181c-.5,1.3-1.1,2.6-1.8,3.9-.7,1.1-1.8,1.3-2.4,0-.3-.6.9-4.5,1.7-6.4s2.1-3.9,3.2-2.9c1.2,1.4,2.2,3.1,2.8,4.9.6,1.6,2,4.8.2,5.1s-3.5-3.9-3.6-4.5"/>
      <path id="Path_3811" class="cls-2" d="M41.9,181c-.5,1.3-1.1,2.6-1.8,3.9-.7,1.1-1.8,1.3-2.4,0-.3-.6.9-4.5,1.7-6.4s2.1-3.9,3.2-2.9c1.2,1.4,2.2,3.1,2.8,4.9.6,1.6,2,4.8.2,5.1s-3.5-3.9-3.6-4.5"/>
      <path id="Path_3812" class="cls-2" d="M51.3,181c-.5,1.3-1.1,2.6-1.8,3.9-.7,1.1-1.8,1.3-2.4,0-.3-.6.9-4.5,1.7-6.4s2.1-3.9,3.2-2.9c1.2,1.4,2.2,3.1,2.8,4.9.6,1.6,2,4.8.2,5.1s-3.5-3.9-3.6-4.5"/>
      <path id="Path_3813" class="cls-2" d="M60.7,181c-.5,1.3-1.1,2.6-1.8,3.9-.7,1.1-1.8,1.3-2.5,0-.3-.6.9-4.5,1.7-6.4s2.1-3.9,3.2-2.9c1.2,1.4,2.2,3.1,2.8,4.9.6,1.6,2,4.8.2,5.1s-3.5-3.9-3.6-4.5"/>
      <path id="Path_3814" class="cls-2" d="M70.1,181c-.5,1.3-1.1,2.6-1.8,3.9-.7,1.1-1.8,1.3-2.5,0-.3-.6.9-4.5,1.7-6.4s2.1-3.9,3.2-2.9c1.2,1.4,2.2,3.1,2.8,4.9.6,1.6,2,4.8.2,5.1s-3.5-3.9-3.6-4.5"/>
      <path id="Path_3815" class="cls-2" d="M79.5,181c-.5,1.3-1.1,2.6-1.8,3.9-.8,1.1-1.8,1.3-2.5,0-.3-.6.9-4.5,1.7-6.4s2.1-3.9,3.2-2.9c1.2,1.4,2.2,3.1,2.8,4.9.6,1.6,2,4.8.2,5.1s-3.5-3.9-3.6-4.5"/>
      <path id="Path_3816" class="cls-2" d="M89.5,181c-.5,1.3-1.1,2.6-1.8,3.9-.8,1.1-1.8,1.3-2.5,0-.3-.6.9-4.5,1.7-6.4s2.1-3.9,3.2-2.9c1.2,1.4,2.2,3.1,2.8,4.9.6,1.6,2,4.8.2,5.1s-3.5-3.9-3.6-4.5"/>
      <path id="Path_3817" class="cls-2" d="M98.9,181c-.5,1.3-1.1,2.6-1.8,3.9-.7,1.1-1.8,1.3-2.5,0-.3-.6.9-4.5,1.7-6.4.8-1.8,2.1-3.9,3.2-2.9,1.2,1.4,2.2,3.1,2.8,4.9.6,1.6,2,4.8.2,5.1s-3.5-3.9-3.6-4.5"/>
      <path id="Path_3818" class="cls-2" d="M108.3,181c-.5,1.3-1.1,2.6-1.8,3.9-.7,1.1-1.8,1.3-2.5,0-.3-.6.9-4.5,1.7-6.4s2.1-3.9,3.2-2.9c1.2,1.4,2.2,3.1,2.8,4.9.6,1.6,2,4.8.2,5.1s-3.5-3.9-3.6-4.5"/>
      <path id="Path_3819" class="cls-2" d="M117.7,181c-.5,1.3-1.1,2.6-1.8,3.9-.7,1.1-1.8,1.3-2.5,0-.3-.6.9-4.5,1.7-6.4s2.1-3.9,3.2-2.9c1.2,1.4,2.2,3.1,2.8,4.9.6,1.6,2,4.8.2,5.1s-3.5-3.9-3.6-4.5"/>
      <path id="Path_3820" class="cls-2" d="M127.1,181c-.5,1.3-1.1,2.6-1.8,3.9-.7,1.1-1.8,1.3-2.5,0-.3-.6.9-4.5,1.7-6.4s2.1-3.9,3.2-2.9c1.2,1.4,2.2,3.1,2.8,4.9.6,1.6,2,4.8.2,5.1s-3.5-3.9-3.6-4.5"/>
      <path id="Path_3821" class="cls-2" d="M136.5,181c-.5,1.3-1.1,2.6-1.8,3.9-.7,1.1-1.8,1.3-2.5,0-.3-.6.9-4.5,1.7-6.4s2.1-3.9,3.2-2.9c1.2,1.4,2.2,3.1,2.8,4.9.6,1.6,2,4.8.2,5.1s-3.5-3.9-3.6-4.5"/>
      <path id="Path_3822" class="cls-2" d="M145.9,181c-.5,1.3-1.1,2.6-1.8,3.9-.7,1.1-1.8,1.3-2.5,0-.3-.6.9-4.5,1.7-6.4s2.1-3.9,3.2-2.9c1.2,1.4,2.2,3.1,2.8,4.9.6,1.6,2,4.8.2,5.1s-3.5-3.9-3.6-4.5"/>
    </g>
  </g>
</svg>